<?xml version="1.0" encoding="utf-8"?>
<!-- Generator: Adobe Illustrator 22.0.0, SVG Export Plug-In . SVG Version: 6.00 Build 0)  -->
<svg version="1.1" id="Layer_1" xmlns="http://www.w3.org/2000/svg" xmlns:xlink="http://www.w3.org/1999/xlink" x="0px" y="0px"
	 viewBox="0 0 502.9 98.8" style="enable-background:new 0 0 502.9 98.8; " xml:space="preserve">
<g>
	<path d="M156.3,73.4c-2.1,0-3.8,1.7-3.8,3.8c0,2.2,1.7,3.9,3.8,3.9c2.2,0,3.9-1.7,3.9-3.9C160.2,75.1,158.5,73.4,156.3,73.4z"/>
	<path d="M158.2,22.9h-3.6c-1.1,0-2,0.8-2,2.1v42.3c0,1.1,0.9,2,2,2h3.6c1.1,0,2-1,2-2V25C160.2,23.7,159.3,22.9,158.2,22.9z"/>
	<path d="M51.8,22.2c-16.3,0-29.4,13.2-29.4,29.5c0,16.3,13.2,29.4,29.4,29.4c16.3,0,29.5-13.1,29.5-29.4
		C81.4,35.4,68.2,22.2,51.8,22.2z M51.8,73.4c-12.1,0-21.7-9.7-21.7-21.8c0-12.1,9.6-21.8,21.7-21.8c12.1,0,21.8,9.8,21.8,21.8
		C73.7,63.7,64,73.4,51.8,73.4z"/>
	<path d="M139.1,22.9h-3.6c-0.8,0-1.7,0.6-2,1.5l-16.7,40.4c-0.3,0.7-1.9,1.6-2.7-0.3L97.4,24.4c-0.3-0.9-1.1-1.5-1.9-1.5h-3.6
		c-1.1,0-2,0.8-2,2.1l-1.6,53.3c0,1.1,0.9,2,2,2h3.6c1.1,0,2-1,2-2l0.8-28.5c0.2-2.3,1.7-2.8,2.3-1.2l12.7,30.5
		c0.3,0.8,1.3,1.2,2.3,1.2h2.8c1.1,0,2.1-0.4,2.4-1.2l12.4-30c0.8-1.9,2.4-1.9,2.5,0.1l1,29.1c0,1.1,0.9,2,2,2h3.6c1.1,0,2-1,2-2
		L141.2,25C141.2,23.7,140.3,22.9,139.1,22.9z"/>
	<path d="M188.7,22.9h-16.4c-1.1,0-2,0.8-2,2.1v53.3c0,1.1,0.9,2,2,2h16.4c16.3,0,28.7-12.3,28.7-28.6
		C217.5,35.4,205.1,22.9,188.7,22.9z M188.7,72.6H180c-1.1,0-2-0.8-2-2.1V32.7c0-1.1,0.7-2,1.7-2h9.1c12.1,0,20.9,9,20.9,21
		C209.7,63.7,200.8,72.6,188.7,72.6z"/>
	<path d="M246.8,24.1c-0.2-0.6-1.1-1.2-2-1.2h-4.6c-0.9,0-1.9,0.6-2.1,1.3l-18.8,53.6c-0.4,1.1,0.2,2.5,1.2,2.5h3.3
		c1.1,0,2.7,0.2,3.2-1.4l3.6-10.4c0.4-1.1,1.1-1.9,2.3-1.9h18.8c1.6,0,2.3,1.1,2.8,2.5l3.4,9.7c0.6,1.5,2.2,1.4,3.2,1.4h3.3
		c1.4,0,1.6-1.5,1.2-2.5L246.8,24.1z M248.8,59h-12.4c-1.1,0-1.9-0.8-1.6-1.6l6.5-18.7c0.3-1,1.9-1.3,2.3-0.2l6.6,18.8
		C250.4,58.1,249.8,59,248.8,59z"/>
	<path d="M304.9,59.5c5.2-3.2,8.3-8.3,8.3-15.9c0-15.5-13.3-20.7-29.5-20.7h-9.4c-1.1,0-2,0.8-2,2.1v53.3c0,1.1,0.9,2,2,2h3.6
		c1.1,0,2-1,2-2V66.1c0-1,0.7-1.9,1.6-1.9h2.1c3.2,0,6.1-0.2,9-0.6c1.2-0.2,2.3,0.2,2.5,0.6l7.1,14.8c0.3,0.6,0.9,1.2,2.3,1.2h4.5
		c1.9,0,1.9-1.2,1.3-2.5l-6.8-14C302.8,61.6,303.2,60.9,304.9,59.5z M283.8,56.5h-2c-1.1,0-1.7-0.9-1.7-2V32.4c0-1,0.8-1.8,1.8-1.8
		h1.9c12.1,0,21.8,3.3,21.8,12.9C305.5,53.1,295.8,56.5,283.8,56.5z"/>
	<path d="M355.9,72.6h-25.2c-1,0-1.6-0.5-1.6-2.1V25c0-1.3-0.9-2.1-2-2.1h-3.6c-1.1,0-2,0.8-2,2.1v53.3c0,1.1,0.6,2,2,2h32.5
		c1.1,0,2-0.9,2-2v-3.6C357.9,73.5,356.9,72.6,355.9,72.6z"/>
	<path d="M370.4,22.9h-3.6c-1.1,0-2,0.8-2,2.1v53.3c0,1.1,0.9,2,2,2h3.6c1.1,0,2-1,2-2V25C372.5,23.7,371.6,22.9,370.4,22.9z"/>
	<path d="M423.4,22.9h-3.6c-1.1,0-2,0.8-2,2.1v35.8c0,2.8-1.4,2.3-1.9,1.5l-25.6-38.2c-0.6-0.9-1.2-1.2-1.9-1.2h-3.6
		c-1.1,0-2,0.8-2,2.1v53.3c0,1.1,0.9,2,2,2h3.6c1.1,0,2-1,2-2V42.6c0-2.6,1.6-2.2,2-1.6L418,79.4c0.5,0.7,1.1,1,2.2,1h3.2
		c1.1,0,2-1,2-2V25C425.4,23.7,424.5,22.9,423.4,22.9z"/>
	<path d="M478.5,48.9h-17c-1.2,0-2,0.9-2,2v3.6c0,1.1,0.8,2,2,2h9.5c1.1,0,1.8,0.9,1.8,2v9.9c0,2-0.4,2.8-1.9,3.5
		c-2.5,1.1-5.2,1.5-8,1.5c-12.1,0-21.7-9.7-21.7-21.8c0-12.1,9.6-21.8,21.7-21.8c3.6,0,7,1,10,2.4c1.1,0.6,2.3,0.2,3-0.6l1.8-3.2
		c0.6-1,0.2-2.2-0.7-2.8c-4.1-2.4-9-3.6-14.1-3.6c-16.3,0-29.4,13.1-29.4,29.4c0,16.3,13.2,29.4,29.4,29.4c6.2,0,12.1-1.9,16.8-5.3
		c0.5-0.3,0.7-1,0.7-1.5V50.9C480.5,49.7,479.5,48.9,478.5,48.9z"/>
</g>
</svg>
