<?xml version="1.0" encoding="utf-8"?>
<!-- Generator: Adobe Illustrator 16.0.0, SVG Export Plug-In . SVG Version: 6.00 Build 0)  -->
<!DOCTYPE svg PUBLIC "-//W3C//DTD SVG 1.1//EN" "http://www.w3.org/Graphics/SVG/1.1/DTD/svg11.dtd">
<svg version="1.1" id="Calque_1" xmlns="http://www.w3.org/2000/svg" xmlns:xlink="http://www.w3.org/1999/xlink" x="0px" y="0px"
	  viewBox="0 190 841.89 200.28" enable-background="new 0 0 841.89 595.28" xml:space="preserve">
<path fill="#010101" d="M214.864,277.982c-13.569,0-23.354,9.97-23.354,22.339c0,12.735,9.415,22.335,22.802,22.335
	c13.015,0,23.169-9.971,23.169-22.335C237.48,287.399,227.881,277.982,214.864,277.982z M226.937,309.998
	c-2.673,3.514-5.785,6.486-9.464,8.732c-0.83,0.508-1.714,0.912-2.586,1.332c-0.166,0.078-0.413,0.078-0.583,0.008
	c-2.309-0.955-4.371-2.371-6.305-4.004c-3.377-2.85-6.245-6.19-8.444-10.173c-1.374-2.488-2.28-5.152-2.681-8.019
	c-0.754-5.425,2.722-10.777,7.733-11.784c1.477-0.297,2.857-0.293,4.14,0.003c2.151,0.494,4.025,1.809,5.621,3.907
	c0.057,0.077,0.117,0.154,0.206,0.265c0.355-0.434,0.667-0.854,1.018-1.234c1.437-1.553,3.097-2.532,4.958-2.94
	c0.776-0.17,1.583-0.253,2.428-0.219c4.718,0.182,8.652,4.031,9.318,9.041c0.265,1.999-0.079,3.932-0.588,5.833
	C230.78,304.22,229.049,307.229,226.937,309.998z"/>
<path fill="#010101" d="M260.799,318.253c2.184,1.092,4.186,0.364,4.186,2.002c0,0.819-0.819,0.91-2.275,0.91
	c-0.273,0-0.546,0-0.819,0h-18.744c-0.546,0-1.092,0-1.82,0c-0.819,0-1.183-0.364-1.183-1.001c0-1.456,1.547-1.002,4.186-1.729
	c3.094-0.91,4.276-2.73,4.276-6.279v-17.739c0-4.458-0.818-7.098-4.367-7.461c-2.912-0.273-4.641,0.182-4.641-1.274
	c0-1.638,2.002-0.728,6.733-1.911c6.551-1.638,10.009-4.732,10.828-4.732c0.91,0,0.91,0.546,0.91,1.365v6.097l2.73-1.82
	c6.096-3.913,11.738-5.733,15.287-5.733c5.096,0,8.28,2.73,8.735,7.553l3.002-1.82c6.279-3.64,11.101-5.733,15.287-5.733
	c7.37,0,8.826,4.277,8.826,11.556v21.652c0,3.549,1.183,5.369,4.276,6.279c2.639,0.727,4.277,0.272,4.277,1.729
	c0,0.91-0.546,1.001-1.82,1.001c-0.364,0-0.819,0-1.274,0h-18.744c-0.273,0-1.001,0-1.911,0c-0.728,0-1.183-0.364-1.183-0.91
	c0-1.547,1.638-0.91,3.821-1.819c2.275-0.91,3.276-3.004,3.276-6.279v-20.56c0-1.183,0-2.002,0-2.366
	c0-3.822-1.82-5.732-5.369-5.732c-2.639,0-5.732,1.365-9.736,3.913l-2.639,1.638v23.108c0,3.094,0.819,5.096,2.912,6.097
	c2.184,1.092,4.186,0.364,4.186,2.002c0,0.819-0.819,0.91-2.275,0.91c-0.273,0-0.546,0-0.819,0h-17.289c-0.273,0-1.001,0-1.911,0
	c-0.728,0-1.183-0.364-1.183-0.91c0-1.547,1.638-0.91,3.822-1.819c2.275-0.91,3.275-3.004,3.275-6.279v-20.56
	c0-1.183,0-2.002,0-2.366c0-3.822-1.82-5.732-5.369-5.732c-2.639,0-5.732,1.365-9.736,3.913l-2.639,1.638v23.108
	C257.887,315.25,258.706,317.252,260.799,318.253z"/>
<path fill="#010101" d="M367.333,322.529c-11.192,0-20.11-9.008-20.11-21.743c0-13.375,8.827-22.111,20.474-22.111
	c6.188,0,10.828,2.457,13.831,7.279v-16.833c0-4.458-0.637-7.006-4.276-7.371c-2.912-0.272-4.641,0.182-4.641-1.274
	c0-1.638,2.002-0.728,6.733-1.911c6.552-1.638,10.009-4.822,10.828-4.822c0.91,0,0.91,0.546,0.91,1.364v57.048
	c0,3.458,1.274,5.46,3.458,6.006c3.549,0.91,5.822,0.546,5.822,2.002c0,0.91-0.728,1.001-1.91,1.001c-0.363,0-0.818,0-1.273,0
	h-13.376c-1.547,0-2.275-0.638-2.275-2.093v-4.551C378.252,319.982,373.793,322.529,367.333,322.529z M369.79,281.223
	c-7.279,0-12.011,6.916-12.011,19.926c0,12.009,4.368,18.741,11.83,18.741c7.188,0,12.102-6.643,12.102-19.287
	C381.709,287.774,377.251,281.223,369.79,281.223z"/>
<path fill="#010101" d="M415.792,322.621c-7.917,0-12.467-4.368-12.467-11.011c0-9.46,9.736-14.828,28.666-15.101v-4.914
	c0-7.279-2.82-10.919-8.554-10.919c-5.005,0-8.1,3.185-8.1,5.277c0,0.546,0.818,1.82,0.818,3.64c0,3.64-2.184,5.732-5.459,5.732
	c-3.185,0-5.551-2.093-5.551-5.368c0-5.733,8.099-11.374,19.202-11.374c11.102,0,16.834,4.458,16.834,13.467v19.105
	c0,4.458,0.729,6.732,3.549,6.732c2.184,0,4.004-3.094,4.004-3.912c0-0.091,0.455-0.547,0.91-0.547c0.637,0,1.092,0.456,1.092,1.184
	c0,2.548-3.549,7.916-10.556,7.916c-5.732,0-8.462-2.911-8.462-8.826c0-0.363,0-0.637,0-0.91
	C428.26,319.254,422.618,322.621,415.792,322.621z M431.081,298.42c-11.284,0-17.655,5.002-17.655,11.644
	c0,4.641,2.821,7.552,7.19,7.552c6.28,0,11.375-5.823,11.375-14.738v-4.458C431.718,298.42,431.354,298.42,431.081,298.42z"/>
<path fill="#010101" d="M474.19,318.253c3.184,1.274,5.549,0.273,5.549,1.819c0,1.002-1.092,1.093-3.094,1.093c-0.271,0-0.637,0-1,0
	h-20.201c-0.545,0-1.092,0-1.819,0c-0.819,0-1.183-0.364-1.183-1.001c0-1.456,1.547-1.002,4.186-1.729
	c3.094-0.91,4.276-2.73,4.276-6.279v-17.739c0-4.458-0.819-7.098-4.367-7.461c-2.912-0.273-4.641,0.182-4.641-1.274
	c0-1.638,2.002-0.728,6.733-1.911c6.551-1.638,10.009-4.732,10.828-4.732c0.91,0,0.91,0.546,0.91,1.365v6.643l3.184-2.639
	c4.369-3.549,7.734-5.55,10.92-5.55c3.73,0,6.461,2.547,6.461,6.005c0,2.639-2.367,4.914-5.461,4.914
	c-4.457,0-5.459-4.641-8.279-4.641c-0.818,0-3.459,1.456-6.824,4.732v22.289C470.368,315.25,471.55,317.252,474.19,318.253z"/>
<path fill="#010101" d="M490.773,261.75c-2.912-0.272-4.641,0.182-4.641-1.274c0-1.638,2.002-0.728,6.734-1.911
	c6.551-1.638,10.008-4.822,10.828-4.822c0.908,0,0.908,0.546,0.908,1.364v57.048c0,2.912,0.91,4.732,3.094,5.914
	c2.639,1.457,5.279,0.273,5.279,2.185c0,0.819-1.002,0.91-2.641,0.91c-0.363,0-0.637,0-1,0h-19.654c-0.545,0-1.092,0-1.82,0
	c-0.818,0-1.182-0.364-1.182-1.001c0-1.456,1.547-1.002,4.186-1.729c3.094-0.91,4.275-2.73,4.275-6.279v-43.035
	C495.141,264.663,494.414,262.115,490.773,261.75z"/>
<path fill="#010101" d="M536.927,318.07c2.639,1.457,5.369,0.273,5.369,2.185c0,0.819-1.002,0.91-2.639,0.91
	c-0.365,0-0.639,0-1.002,0h-19.654c-0.637,0-1.184,0-1.82,0c-0.818,0-1.273-0.364-1.273-1.001c0-1.456,1.639-1.002,4.277-1.729
	c3.094-0.91,4.186-2.73,4.186-6.279v-17.739c0-4.914-0.91-7.552-5.551-7.552c-0.455,0-0.818,0-1.092,0
	c-1.457,0-2.275-0.273-2.275-1.183c0-1.729,2.275-0.546,7.553-2.093c6.096-1.729,9.189-4.55,10.01-4.55
	c0.727,0,0.818,0.364,0.818,1.001c0,0.09,0,0.182,0,0.364v31.752C533.833,315.068,534.743,316.889,536.927,318.07z M529.284,264.571
	c3.184,0,5.732,2.548,5.732,5.732c0,3.276-2.549,5.824-5.732,5.824c-3.277,0-5.824-2.548-5.824-5.824
	C523.46,267.119,526.099,264.571,529.284,264.571z"/>
<path fill="#010101" d="M566.791,284.681c6.551-3.822,11.557-5.733,15.559-5.733c7.553,0,9.01,4.277,9.01,11.556v21.652
	c0,3.549,1.182,5.369,4.275,6.279c2.639,0.727,4.186,0.272,4.186,1.729c0,0.91-0.545,1.001-1.729,1.001c-0.363,0-0.818,0-1.273,0
	h-18.926c-0.273,0-1.002,0-1.912,0c-0.727,0-1.182-0.364-1.182-0.91c0-1.547,1.637-0.91,3.82-1.819
	c2.275-0.91,3.277-3.004,3.277-6.279v-20.56c0-1.183,0-2.002,0-2.366c0-3.822-1.82-5.732-5.461-5.732
	c-2.82,0-5.914,1.365-10.008,3.913l-2.639,1.638v23.108c0,3.094,0.818,5.096,2.91,6.097c2.186,1.092,4.186,0.364,4.186,2.002
	c0,0.819-0.818,0.91-2.273,0.91c-0.273,0-0.547,0-0.82,0h-18.926c-0.545,0-1.092,0-1.82,0c-0.818,0-1.182-0.364-1.182-1.001
	c0-1.456,1.547-1.002,4.186-1.729c3.094-0.91,4.275-2.73,4.275-6.279v-17.739c0-4.458-0.818-7.098-4.367-7.461
	c-2.912-0.273-4.641,0.182-4.641-1.274c0-1.638,2.002-0.728,6.734-1.911c6.551-1.638,10.008-4.732,10.828-4.732
	c0.91,0,0.91,0.546,0.91,1.365v6.097L566.791,284.681z"/>
<path fill="#010101" d="M603.085,294.417c0-8.735,8.008-16.015,18.834-16.015c2.457,0,5.006,0.455,7.645,1.183
	c4.549-3.367,8.008-5.459,12.01-5.459c3.367,0,5.461,2.001,5.461,4.731c0,2.639-1.912,4.731-4.732,4.731
	c-4.367,0-5.369-4.641-7.734-4.641c-1,0-1.637,0.728-3.002,1.638c5.914,2.639,9.189,7.461,9.189,13.375
	c0,8.825-7.279,15.647-18.381,15.647c-2.092,0-4.822-0.364-8.371-0.819c-3.549,0.273-5.459,1.365-5.459,3.094
	c0,3.094,4.459,3.458,13.83,3.458c14.377,0,22.84,1.637,22.84,11.191c0,9.281-8.098,15.287-23.477,15.287
	c-13.83,0-21.746-4.732-21.746-10.737c0-3.731,3.549-6.46,6.643-6.46c1.91,0,2.91,0.182,2.91,0.637c0,0.545-2.639,2.002-2.639,5.368
	c0,5.46,5.732,8.735,15.834,8.735c10.191,0,16.287-3.822,16.287-8.553c0-3.913-3.73-6.098-11.01-6.098
	c-16.924,0-25.568-0.637-25.568-8.826c0-4.367,3.457-7.915,9.098-8.643C605.997,304.606,603.085,300.059,603.085,294.417z
	 M612.638,294.963c0,8.188,2.73,12.1,8.828,12.1c6.732,0,9.645-4.366,9.645-13.919c0-8.28-2.639-12.466-9.008-12.466
	C615.55,280.677,612.638,285.409,612.638,294.963z"/>
</svg>
